<?xml version="1.0" encoding="utf-8"?>
<!-- Generator: Adobe Illustrator 24.0.3, SVG Export Plug-In . SVG Version: 6.00 Build 0)  -->
<svg version="1.1" id="Calque_1" xmlns="http://www.w3.org/2000/svg" xmlns:xlink="http://www.w3.org/1999/xlink" x="0px" y="0px"
	 viewBox="0 0 979.52 386.49" style="background:white;" xml:space="preserve">
<style type="text/css">
	.st0{fill:#0095DB;}
</style>
<g>
	<g>
		<path d="M150.49,42.23c22.92,0,60.27,9.85,60.27,34.15v13.29h-15.12v-8.94c0-15.12-26.12-23.37-44.69-23.37
			c-35.75,0-63.25,27.96-63.25,66.91c0,38.5,27.27,69.44,63.93,69.44c33.23,0,52.71-22.69,52.71-22.69l9.17,11.69
			c0,0-22.23,26.12-62.1,26.12c-47.21,0-80.43-37.58-80.43-84.56C70.97,77.75,105.12,42.23,150.49,42.23z"/>
		<path d="M301.06,135.04h6.42v-1.38c0-24.06-8.71-32.54-29.79-32.54c-5.73,0-22.46,1.6-22.46,10.09v7.33h-14.89v-11
			c0-16.04,27.5-19.48,37.58-19.48c36.44,0,45.14,19.48,45.14,44.23v55.23c0,3.44,1.83,5.04,5.04,5.04h9.62v13.52h-15.81
			c-9.85,0-13.75-4.35-13.75-13.75c0-5.04,0.23-8.48,0.23-8.48h-0.46c0.23,0-9.4,24.98-38.27,24.98
			c-19.25,0-39.19-11.23-39.19-34.14C230.48,136.42,281.12,135.04,301.06,135.04z M272.18,195.54c22,0,35.29-22.92,35.29-42.85
			v-5.27h-6.65c-18.1,0-54.31,0.46-54.31,26.35C246.52,184.54,255,195.54,272.18,195.54z"/>
		<path d="M362.25,63.55c0-3.21-1.83-5.04-5.04-5.04h-9.62V44.98h16.27c9.85,0,13.98,4.13,13.98,13.98v128.56
			c0,3.44,1.83,5.04,5.04,5.04h9.62v13.52h-16.27c-9.85,0-13.98-4.13-13.98-13.98V63.55z"/>
		<path class="st0" d="M425.04,240.23c10.08,0,16.96-8.25,21.31-18.79l6.87-15.81l-40.56-96.02c-1.83-4.13-3.9-5.27-8.02-5.27h-2.29
			V90.82h7.1c10.31,0,13.52,2.29,17.64,12.6l29.56,71.96c2.29,5.73,4.13,12.37,4.13,12.37h0.46c0,0,1.6-6.65,3.9-12.37l28.42-71.96
			c3.9-10.31,7.33-12.6,17.87-12.6h7.1v13.52h-2.29c-4.12,0-6.42,1.15-8.02,5.27L458.5,230.14c-5.96,14.67-17.64,24.06-33,24.06
			c-16.04,0-24.98-11.23-24.98-11.23l7.33-11.46C407.85,231.75,415.19,240.23,425.04,240.23z"/>
		<path d="M542.14,109.38c0-3.21-1.83-5.04-5.04-5.04h-9.63V90.82h15.81c9.85,0,13.75,4.13,13.75,12.14c0,4.59-0.23,7.79-0.23,7.79
			h0.46c0,0,9.17-22.69,39.64-22.69c30.94,0,50.19,24.75,50.19,60.5c0,36.44-21.77,60.27-51.56,60.27
			c-28.19,0-37.81-21.77-37.81-21.77h-0.46c0,0,0.46,4.13,0.46,10.08v54.77h-15.58V109.38z M593.94,195.08
			c20.39,0,37.12-17.19,37.12-46.52c0-28.18-14.89-46.29-36.44-46.29c-19.25,0-37.35,13.75-37.35,46.52
			C557.27,171.94,569.87,195.08,593.94,195.08z"/>
		<path d="M672.31,177.9c0,0,12.83,17.42,35.52,17.42c12.83,0,24.29-6.19,24.29-18.33c0-25.21-64.62-20.62-64.62-57.75
			c0-20.85,17.87-31.17,41.02-31.17c11.69,0,35.06,4.58,35.06,20.85v9.85h-14.67v-5.5c0-8.48-12.38-11.69-19.94-11.69
			c-16.04,0-25.67,5.5-25.67,16.73c0,25.9,64.62,19.94,64.62,58.21c0,19.25-17.42,32.31-40.33,32.31
			c-30.02,0-44.23-20.17-44.23-20.17L672.31,177.9z"/>
		<path d="M827.46,88.07c33.69,0,60.96,25.67,60.96,59.81c0,34.83-27.27,60.96-60.73,60.96c-33.69,0-60.96-26.12-60.96-60.96
			C766.73,113.73,794,88.07,827.46,88.07z M827.69,194.85c24.52,0,44.69-20.17,44.69-46.98c0-26.13-20.17-45.6-44.69-45.6
			c-24.75,0-44.92,19.48-44.92,45.6C782.77,174.69,802.94,194.85,827.69,194.85z"/>
	</g>
	<g>
		<path d="M79.69,327.8h3.51c1.14,0,1.8-0.57,1.8-1.8v-50.55h5.23l29.31,40.91c1.96,2.86,4.65,7.51,4.65,7.51h0.16
			c0,0-0.41-4.49-0.41-7.51v-35.93c0-3.51,1.47-4.98,4.98-4.98h6.04v5.06h-3.51c-1.14,0-1.8,0.57-1.8,1.8v50.55h-5.23l-29.31-40.91
			c-2.04-2.78-4.74-7.43-4.74-7.43h-0.16c0,0,0.49,4.41,0.49,7.43v35.93c0,3.51-1.47,4.98-4.98,4.98h-6.04V327.8z"/>
		<path d="M161.44,290.81c11.35,0,17.23,8.74,17.23,18.94c0,0.98-0.16,2.78-0.16,2.78h-31.52c0.16,10.37,7.43,16.33,15.92,16.33
			c7.51,0,12.33-5.06,12.33-5.06l2.7,4.16c0,0-5.96,5.88-15.27,5.88c-12.17,0-21.48-8.82-21.48-21.48
			C141.19,298.89,150.42,290.81,161.44,290.81z M172.96,308.12c-0.33-8.49-5.55-12.66-11.6-12.66c-6.78,0-12.74,4.41-14.13,12.66
			H172.96z"/>
		<path d="M190.27,296.44h-5.39v-4.65h5.47v-11.35h5.47v11.35h10.29v4.65h-10.29v20.9c0,9.64,6.12,10.86,9.23,10.86
			c1.14,0,1.88-0.16,1.88-0.16v4.98c0,0-0.98,0.16-2.37,0.16c-4.74,0-14.29-1.55-14.29-15.27V296.44z"/>
		<path d="M213.96,298.48c-0.49-1.47-1.39-1.88-2.86-1.88h-1.06v-4.82h2.86c3.92,0,5.23,0.73,6.45,4.57l8.41,26.05
			c0.65,1.96,1.22,4.41,1.22,4.41h0.16c0,0,0.65-2.45,1.31-4.41l10.04-30.46h5.55l10.04,30.46c0.65,1.96,1.31,4.41,1.31,4.41h0.16
			c0,0,0.49-2.37,1.14-4.41l8.49-26.05c1.22-3.84,2.53-4.57,6.45-4.57h2.86v4.82h-1.14c-1.39,0-2.37,0.41-2.86,1.88l-11.76,34.38
			h-6.12l-10.04-29.23c-0.65-2.04-1.22-4.41-1.22-4.41h-0.16c0,0-0.57,2.37-1.31,4.41l-9.96,29.23h-6.21L213.96,298.48z"/>
		<path d="M301.43,290.81c12,0,21.72,9.14,21.72,21.31c0,12.41-9.72,21.72-21.64,21.72c-12,0-21.72-9.31-21.72-21.72
			C279.79,299.95,289.51,290.81,301.43,290.81z M301.51,328.86c8.74,0,15.92-7.19,15.92-16.74c0-9.31-7.19-16.25-15.92-16.25
			c-8.82,0-16.01,6.94-16.01,16.25C285.5,321.67,292.69,328.86,301.51,328.86z"/>
		<path d="M333.53,298.4c0-1.14-0.65-1.8-1.8-1.8h-3.43v-4.82h5.72c3.43,0,4.98,1.39,4.98,4.65v2.78c0,1.71-0.16,3.1-0.16,3.1H339
			c1.96-6.21,6.53-10.94,12.98-10.94c1.14,0,2.2,0.25,2.2,0.25v5.47c0,0-0.98-0.16-2.04-0.16c-5.8,0-10.13,4.57-11.92,10.62
			c-0.82,2.61-1.14,5.39-1.14,8v17.31h-5.55V298.4z"/>
		<path d="M361.95,282.07c0-1.14-0.65-1.8-1.8-1.8h-3.43v-4.82h5.8c3.51,0,4.98,1.23,4.98,4.74v27.27h4.25
			c1.55,0,3.51-0.49,4.65-1.96l10.53-13.72h6.78l-11.84,15.02c-2.04,2.53-3.1,2.94-3.1,2.94v0.16c0,0,1.22,0.57,2.53,3.02
			l7.43,13.31c0.73,1.39,1.55,1.8,3.76,1.8h2.2v4.82h-3.84c-4.08,0-5.23-0.65-7.1-4.08l-8.17-14.7c-0.9-1.63-2.86-1.8-4.33-1.8
			h-3.76v20.58h-5.55V282.07z"/>
		<path d="M401.32,322.81c0,0,4.57,6.21,12.66,6.21c4.57,0,8.66-2.2,8.66-6.53c0-8.98-23.03-7.35-23.03-20.58
			c0-7.43,6.37-11.1,14.62-11.1c4.16,0,12.49,1.63,12.49,7.43v3.51h-5.23v-1.96c0-3.02-4.41-4.16-7.1-4.16
			c-5.72,0-9.14,1.96-9.14,5.96c0,9.23,23.03,7.1,23.03,20.74c0,6.86-6.21,11.51-14.37,11.51c-10.7,0-15.76-7.19-15.76-7.19
			L401.32,322.81z"/>
		<path d="M454.9,327.8h1.06c1.47,0,2.37-0.25,2.94-1.8l18.78-50.55h6.12L502.58,326c0.57,1.55,1.39,1.8,2.94,1.8h0.98v5.06h-2.61
			c-4.08,0-5.31-0.82-6.78-4.74l-4.98-13.56h-22.78l-5.06,13.56c-1.47,3.92-2.61,4.74-6.7,4.74h-2.7V327.8z M490.58,309.59
			l-7.6-20.49c-0.98-2.7-2.2-7.43-2.2-7.43h-0.16c0,0-1.22,4.74-2.2,7.43l-7.51,20.49H490.58z"/>
		<path d="M513.13,322.81c0,0,4.57,6.21,12.66,6.21c4.57,0,8.66-2.2,8.66-6.53c0-8.98-23.03-7.35-23.03-20.58
			c0-7.43,6.37-11.1,14.62-11.1c4.16,0,12.49,1.63,12.49,7.43v3.51h-5.23v-1.96c0-3.02-4.41-4.16-7.1-4.16
			c-5.72,0-9.14,1.96-9.14,5.96c0,9.23,23.03,7.1,23.03,20.74c0,6.86-6.21,11.51-14.37,11.51c-10.7,0-15.76-7.19-15.76-7.19
			L513.13,322.81z"/>
		<path d="M549.06,322.81c0,0,4.57,6.21,12.66,6.21c4.57,0,8.66-2.2,8.66-6.53c0-8.98-23.03-7.35-23.03-20.58
			c0-7.43,6.37-11.1,14.62-11.1c4.16,0,12.49,1.63,12.49,7.43v3.51h-5.23v-1.96c0-3.02-4.41-4.16-7.1-4.16
			c-5.72,0-9.14,1.96-9.14,5.96c0,9.23,23.03,7.1,23.03,20.74c0,6.86-6.21,11.51-14.37,11.51c-10.7,0-15.76-7.19-15.76-7.19
			L549.06,322.81z"/>
		<path d="M604.35,290.81c12,0,21.72,9.14,21.72,21.31c0,12.41-9.72,21.72-21.64,21.72c-12,0-21.72-9.31-21.72-21.72
			C582.71,299.95,592.43,290.81,604.35,290.81z M604.44,328.86c8.74,0,15.92-7.19,15.92-16.74c0-9.31-7.19-16.25-15.92-16.25
			c-8.82,0-16.01,6.94-16.01,16.25C588.43,321.67,595.62,328.86,604.44,328.86z"/>
		<path d="M654.26,290.81c4.65,0,14.62,1.96,14.62,8.74v3.67h-5.23v-2.37c0-3.43-5.96-5.06-9.39-5.06
			c-8.82,0-15.92,6.61-15.92,16.58c0,10.13,7.43,16.41,16.09,16.41c8.41,0,13.23-5.8,13.23-5.8l2.61,4.16c0,0-5.55,6.7-16.09,6.7
			c-12.25,0-21.56-8.74-21.56-21.48C632.62,299.79,642.01,290.81,654.26,290.81z"/>
		<path d="M679.99,298.4c0-1.14-0.65-1.8-1.8-1.8h-3.43v-4.82h5.8c3.51,0,4.98,1.47,4.98,4.98v29.48c0,1.22,0.65,1.8,1.8,1.8h3.43
			v4.82h-5.8c-3.51,0-4.98-1.47-4.98-4.98V298.4z M679.82,275.45h5.39v7.02h-5.39V275.45z"/>
		<path d="M721.39,307.55h2.29v-0.49c0-8.57-3.1-11.59-10.62-11.59c-2.04,0-8,0.57-8,3.59v2.61h-5.31v-3.92
			c0-5.71,9.8-6.94,13.39-6.94c12.98,0,16.09,6.94,16.09,15.76v19.68c0,1.22,0.65,1.8,1.8,1.8h3.43v4.82h-5.63
			c-3.51,0-4.9-1.55-4.9-4.9c0-1.8,0.08-3.02,0.08-3.02h-0.16c0.08,0-3.35,8.9-13.64,8.9c-6.86,0-13.96-4-13.96-12.17
			C696.24,308.04,714.29,307.55,721.39,307.55z M711.1,329.1c7.84,0,12.57-8.16,12.57-15.27v-1.88h-2.37
			c-6.45,0-19.35,0.16-19.35,9.39C701.95,325.18,704.98,329.1,711.1,329.1z"/>
		<path d="M743.77,296.44h-5.39v-4.65h5.47v-11.35h5.47v11.35h10.29v4.65h-10.29v20.9c0,9.64,6.12,10.86,9.23,10.86
			c1.14,0,1.88-0.16,1.88-0.16v4.98c0,0-0.98,0.16-2.37,0.16c-4.74,0-14.29-1.55-14.29-15.27V296.44z"/>
		<path d="M771.05,298.4c0-1.14-0.65-1.8-1.8-1.8h-3.43v-4.82h5.8c3.51,0,4.98,1.47,4.98,4.98v29.48c0,1.22,0.65,1.8,1.8,1.8h3.43
			v4.82h-5.8c-3.51,0-4.98-1.47-4.98-4.98V298.4z M770.89,275.45h5.39v7.02h-5.39V275.45z"/>
		<path d="M808.94,290.81c12,0,21.72,9.14,21.72,21.31c0,12.41-9.72,21.72-21.64,21.72c-12,0-21.72-9.31-21.72-21.72
			C787.3,299.95,797.02,290.81,808.94,290.81z M809.02,328.86c8.74,0,15.92-7.19,15.92-16.74c0-9.31-7.19-16.25-15.92-16.25
			c-8.82,0-16.01,6.94-16.01,16.25C793.02,321.67,800.21,328.86,809.02,328.86z"/>
		<path d="M841.04,298.4c0-1.14-0.65-1.8-1.8-1.8h-3.43v-4.82h5.72c3.43,0,4.98,1.47,4.98,4.57v1.88c0,1.63-0.16,2.94-0.16,2.94
			h0.16c1.47-3.76,6.7-10.37,16.33-10.37c10.21,0,13.8,5.8,13.8,15.92v19.52c0,1.22,0.65,1.8,1.8,1.8h3.43v4.82h-5.8
			c-3.51,0-4.98-1.47-4.98-4.98V308.2c0-6.45-0.98-12.17-8.9-12.17c-7.02,0-13.07,4.82-14.94,11.59c-0.49,1.72-0.65,3.59-0.65,5.55
			v19.68h-5.55V298.4z"/>
	</g>
</g>
</svg>
