<?xml version="1.0" encoding="us-ascii" standalone="no"?><svg xmlns="http://www.w3.org/2000/svg" xmlns:xlink="http://www.w3.org/1999/xlink" contentStyleType="text/css" height="1145px" preserveAspectRatio="none" style="width:1915px;height:1145px;background:#FFFFFF;" version="1.1" viewBox="0 0 1915 1145" width="1915px" zoomAndPan="magnify"><defs/><g><text fill="#000000" font-family="sans-serif" font-size="14" font-weight="bold" lengthAdjust="spacing" textLength="329" x="786.25" y="25.1074">Calypsonet Terminal Card API 2.0.+ (2023-06-01)</text><!--cluster spi--><g id="cluster_spi"><path d="M8.5,45.6348 L31.5,45.6348 A3.75,3.75 0 0 1 34,48.1348 L41,70.2559 L724.5,70.2559 A2.5,2.5 0 0 1 727,72.7559 L727,876.6348 A2.5,2.5 0 0 1 724.5,879.1348 L8.5,879.1348 A2.5,2.5 0 0 1 6,876.6348 L6,48.1348 A2.5,2.5 0 0 1 8.5,45.6348 " fill="#F8F9F9" style="stroke:#000000;stroke-width:1.5;"/><line style="stroke:#000000;stroke-width:1.5;" x1="6" x2="41" y1="70.2559" y2="70.2559"/><text fill="#000000" font-family="sans-serif" font-size="14" font-weight="bold" lengthAdjust="spacing" textLength="22" x="10" y="62.7422">SPI</text></g><!--class CardSelectionExtensionSpi--><g id="elem_CardSelectionExtensionSpi"><rect codeLine="55" fill="#FEFECE" height="85.2422" id="CardSelectionExtensionSpi" rx="2.5" ry="2.5" style="stroke:#D4AC0D;stroke-width:2.0;" width="515" x="138.5" y="82.6348"/><ellipse cx="301.25" cy="98.6348" fill="#B4A7E5" rx="11" ry="11" style="stroke:#181818;stroke-width:1.0;"/><path d="M302.2031,95.2754 L302.2031,101.9316 L303.9219,101.9316 Q304.5313,101.9316 304.7969,102.166 Q305.0625,102.4004 305.0625,102.791 Q305.0625,103.166 304.7969,103.4004 Q304.5313,103.6348 303.9219,103.6348 L298.7813,103.6348 Q298.1719,103.6348 297.9063,103.4004 Q297.6406,103.166 297.6406,102.7754 Q297.6406,102.4004 297.9063,102.166 Q298.1719,101.9316 298.7813,101.9316 L300.5,101.9316 L300.5,95.2754 L298.7813,95.2754 Q298.1719,95.2754 297.9063,95.041 Q297.6406,94.8066 297.6406,94.416 Q297.6406,94.041 297.9063,93.8066 Q298.1719,93.5723 298.7813,93.5723 L303.9219,93.5723 Q304.5313,93.5723 304.7969,93.8066 Q305.0625,94.041 305.0625,94.416 Q305.0625,94.8066 304.7969,95.041 Q304.5313,95.2754 303.9219,95.2754 L302.2031,95.2754 Z " fill="#000000"/><ellipse cx="326.75" cy="98.1348" fill="#84BE84" rx="3" ry="3" style="stroke:#038048;stroke-width:1.0;"/><text fill="#0000FF" font-family="sans-serif" font-size="14" font-style="italic" lengthAdjust="spacing" textLength="170" x="332.75" y="104.4316">CardSelectionExtensionSpi</text><line style="stroke:#D4AC0D;stroke-width:2.0;" x1="139.5" x2="652.5" y1="114.6348" y2="114.6348"/><line style="stroke:#D4AC0D;stroke-width:2.0;" x1="139.5" x2="652.5" y1="122.6348" y2="122.6348"/><ellipse cx="149.5" cy="137.4453" fill="#84BE84" rx="3" ry="3" style="stroke:#038048;stroke-width:1.0;"/><text fill="#000000" font-family="sans-serif" font-size="14" lengthAdjust="spacing" textLength="342" x="158.5" y="141.7422">CardSelectionRequestSpi getCardSelectionRequest ()</text><ellipse cx="149.5" cy="156.0664" fill="#84BE84" rx="3" ry="3" style="stroke:#038048;stroke-width:1.0;"/><text fill="#000000" font-family="sans-serif" font-size="14" lengthAdjust="spacing" textLength="489" x="158.5" y="160.3633">SmartCardSpi parse (CardSelectionResponseApi cardSelectionResponseApi)</text></g><!--class ParseException--><g id="elem_ParseException"><rect codeLine="59" fill="#FEFECE" height="100.4844" id="ParseException" rx="2.5" ry="2.5" style="stroke:#D4AC0D;stroke-width:2.0;" width="352" x="22" y="468.1348"/><ellipse cx="139.25" cy="491.7559" fill="#ADD1B2" rx="11" ry="11" style="stroke:#181818;stroke-width:1.0;"/><path d="M142.0156,487.6309 Q142.1719,487.4121 142.3594,487.3027 Q142.5469,487.1934 142.7656,487.1934 Q143.1406,487.1934 143.375,487.459 Q143.6094,487.709 143.6094,488.3184 L143.6094,489.7715 Q143.6094,490.3809 143.375,490.6465 Q143.1406,490.9121 142.7656,490.9121 Q142.4219,490.9121 142.2188,490.709 Q142.0156,490.5215 141.9063,490.0059 Q141.8594,489.6465 141.6719,489.459 Q141.3438,489.084 140.7344,488.8652 Q140.125,488.6465 139.5,488.6465 Q138.7344,488.6465 138.0938,488.9746 Q137.4688,489.3027 136.9688,490.0527 Q136.4844,490.8027 136.4844,491.834 L136.4844,492.9277 Q136.4844,494.1621 137.375,494.9902 Q138.2656,495.8027 139.8594,495.8027 Q140.7969,495.8027 141.4531,495.5527 Q141.8438,495.3965 142.2656,494.959 Q142.5313,494.6934 142.6719,494.6152 Q142.8281,494.5371 143.0313,494.5371 Q143.3594,494.5371 143.6094,494.8027 Q143.875,495.0527 143.875,495.3965 Q143.875,495.7402 143.5313,496.1465 Q143.0313,496.7246 142.2344,497.0527 Q141.1563,497.5059 139.8594,497.5059 Q138.3438,497.5059 137.1406,496.8809 Q136.1563,496.3809 135.4688,495.3184 Q134.7813,494.2402 134.7813,492.959 L134.7813,491.8027 Q134.7813,490.4746 135.3906,489.334 Q136.0156,488.1777 137.1094,487.5684 Q138.2031,486.9434 139.4375,486.9434 Q140.1719,486.9434 140.8125,487.1152 Q141.4688,487.2715 142.0156,487.6309 Z " fill="#000000"/><ellipse cx="164.75" cy="491.2559" fill="#84BE84" rx="3" ry="3" style="stroke:#038048;stroke-width:1.0;"/><text fill="#000000" font-family="sans-serif" font-size="14" lengthAdjust="spacing" textLength="77" x="181.25" y="488.2422">&#171;Exception&#187;</text><text fill="#000000" font-family="sans-serif" font-size="14" lengthAdjust="spacing" textLength="98" x="170.75" y="506.8633">ParseException</text><line style="stroke:#D4AC0D;stroke-width:2.0;" x1="23" x2="373" y1="515.377" y2="515.377"/><line style="stroke:#D4AC0D;stroke-width:2.0;" x1="23" x2="373" y1="523.377" y2="523.377"/><ellipse cx="33" cy="538.1875" fill="#84BE84" rx="3" ry="3" style="stroke:#038048;stroke-width:1.0;"/><text fill="#000000" font-family="sans-serif" font-size="14" lengthAdjust="spacing" textLength="210" x="42" y="542.4844">ParseException (String message)</text><ellipse cx="33" cy="556.8086" fill="#84BE84" rx="3" ry="3" style="stroke:#038048;stroke-width:1.0;"/><text fill="#000000" font-family="sans-serif" font-size="14" lengthAdjust="spacing" textLength="326" x="42" y="561.1055">ParseException (String message, Throwable cause)</text></g><!--class SmartCardSpi--><g id="elem_SmartCardSpi"><rect codeLine="63" fill="#FEFECE" height="48" id="SmartCardSpi" rx="2.5" ry="2.5" style="stroke:#D4AC0D;stroke-width:2.0;" width="131" x="192.5" y="283.6348"/><ellipse cx="207.5" cy="299.6348" fill="#B4A7E5" rx="11" ry="11" style="stroke:#181818;stroke-width:1.0;"/><path d="M208.4531,296.2754 L208.4531,302.9316 L210.1719,302.9316 Q210.7813,302.9316 211.0469,303.166 Q211.3125,303.4004 211.3125,303.791 Q211.3125,304.166 211.0469,304.4004 Q210.7813,304.6348 210.1719,304.6348 L205.0313,304.6348 Q204.4219,304.6348 204.1563,304.4004 Q203.8906,304.166 203.8906,303.7754 Q203.8906,303.4004 204.1563,303.166 Q204.4219,302.9316 205.0313,302.9316 L206.75,302.9316 L206.75,296.2754 L205.0313,296.2754 Q204.4219,296.2754 204.1563,296.041 Q203.8906,295.8066 203.8906,295.416 Q203.8906,295.041 204.1563,294.8066 Q204.4219,294.5723 205.0313,294.5723 L210.1719,294.5723 Q210.7813,294.5723 211.0469,294.8066 Q211.3125,295.041 211.3125,295.416 Q211.3125,295.8066 211.0469,296.041 Q210.7813,296.2754 210.1719,296.2754 L208.4531,296.2754 Z " fill="#000000"/><ellipse cx="226.5" cy="299.1348" fill="#84BE84" rx="3" ry="3" style="stroke:#038048;stroke-width:1.0;"/><text fill="#000000" font-family="sans-serif" font-size="14" font-style="italic" lengthAdjust="spacing" textLength="88" x="232.5" y="305.4316">SmartCardSpi</text><line style="stroke:#D4AC0D;stroke-width:2.0;" x1="193.5" x2="322.5" y1="315.6348" y2="315.6348"/><line style="stroke:#D4AC0D;stroke-width:2.0;" x1="193.5" x2="322.5" y1="323.6348" y2="323.6348"/></g><!--class CardSelectionRequestSpi--><g id="elem_CardSelectionRequestSpi"><rect codeLine="66" fill="#FEFECE" height="85.2422" id="CardSelectionRequestSpi" rx="2.5" ry="2.5" style="stroke:#D4AC0D;stroke-width:2.0;" width="352" x="359" y="265.1348"/><ellipse cx="444.25" cy="281.1348" fill="#B4A7E5" rx="11" ry="11" style="stroke:#181818;stroke-width:1.0;"/><path d="M445.2031,277.7754 L445.2031,284.4316 L446.9219,284.4316 Q447.5313,284.4316 447.7969,284.666 Q448.0625,284.9004 448.0625,285.291 Q448.0625,285.666 447.7969,285.9004 Q447.5313,286.1348 446.9219,286.1348 L441.7813,286.1348 Q441.1719,286.1348 440.9063,285.9004 Q440.6406,285.666 440.6406,285.2754 Q440.6406,284.9004 440.9063,284.666 Q441.1719,284.4316 441.7813,284.4316 L443.5,284.4316 L443.5,277.7754 L441.7813,277.7754 Q441.1719,277.7754 440.9063,277.541 Q440.6406,277.3066 440.6406,276.916 Q440.6406,276.541 440.9063,276.3066 Q441.1719,276.0723 441.7813,276.0723 L446.9219,276.0723 Q447.5313,276.0723 447.7969,276.3066 Q448.0625,276.541 448.0625,276.916 Q448.0625,277.3066 447.7969,277.541 Q447.5313,277.7754 446.9219,277.7754 L445.2031,277.7754 Z " fill="#000000"/><ellipse cx="469.75" cy="280.6348" fill="#84BE84" rx="3" ry="3" style="stroke:#038048;stroke-width:1.0;"/><text fill="#000000" font-family="sans-serif" font-size="14" font-style="italic" lengthAdjust="spacing" textLength="162" x="475.75" y="286.9316">CardSelectionRequestSpi</text><line style="stroke:#D4AC0D;stroke-width:2.0;" x1="360" x2="710" y1="297.1348" y2="297.1348"/><line style="stroke:#D4AC0D;stroke-width:2.0;" x1="360" x2="710" y1="305.1348" y2="305.1348"/><ellipse cx="370" cy="319.9453" fill="#84BE84" rx="3" ry="3" style="stroke:#038048;stroke-width:1.0;"/><text fill="#0000FF" font-family="sans-serif" font-size="14" lengthAdjust="spacing" textLength="326" x="379" y="324.2422">Set&lt;Integer&gt; getSuccessfulSelectionStatusWords ()</text><ellipse cx="370" cy="338.5664" fill="#84BE84" rx="3" ry="3" style="stroke:#038048;stroke-width:1.0;"/><text fill="#000000" font-family="sans-serif" font-size="14" lengthAdjust="spacing" textLength="226" x="379" y="342.8633">CardRequestSpi getCardRequest ()</text></g><!--class CardRequestSpi--><g id="elem_CardRequestSpi"><rect codeLine="70" fill="#FEFECE" height="85.2422" id="CardRequestSpi" rx="2.5" ry="2.5" style="stroke:#D4AC0D;stroke-width:2.0;" width="301" x="409.5" y="475.6348"/><ellipse cx="498.25" cy="491.6348" fill="#B4A7E5" rx="11" ry="11" style="stroke:#181818;stroke-width:1.0;"/><path d="M499.2031,488.2754 L499.2031,494.9316 L500.9219,494.9316 Q501.5313,494.9316 501.7969,495.166 Q502.0625,495.4004 502.0625,495.791 Q502.0625,496.166 501.7969,496.4004 Q501.5313,496.6348 500.9219,496.6348 L495.7813,496.6348 Q495.1719,496.6348 494.9063,496.4004 Q494.6406,496.166 494.6406,495.7754 Q494.6406,495.4004 494.9063,495.166 Q495.1719,494.9316 495.7813,494.9316 L497.5,494.9316 L497.5,488.2754 L495.7813,488.2754 Q495.1719,488.2754 494.9063,488.041 Q494.6406,487.8066 494.6406,487.416 Q494.6406,487.041 494.9063,486.8066 Q495.1719,486.5723 495.7813,486.5723 L500.9219,486.5723 Q501.5313,486.5723 501.7969,486.8066 Q502.0625,487.041 502.0625,487.416 Q502.0625,487.8066 501.7969,488.041 Q501.5313,488.2754 500.9219,488.2754 L499.2031,488.2754 Z " fill="#000000"/><ellipse cx="523.75" cy="491.1348" fill="#84BE84" rx="3" ry="3" style="stroke:#038048;stroke-width:1.0;"/><text fill="#000000" font-family="sans-serif" font-size="14" font-style="italic" lengthAdjust="spacing" textLength="104" x="529.75" y="497.4316">CardRequestSpi</text><line style="stroke:#D4AC0D;stroke-width:2.0;" x1="410.5" x2="709.5" y1="507.6348" y2="507.6348"/><line style="stroke:#D4AC0D;stroke-width:2.0;" x1="410.5" x2="709.5" y1="515.6348" y2="515.6348"/><ellipse cx="420.5" cy="530.4453" fill="#84BE84" rx="3" ry="3" style="stroke:#038048;stroke-width:1.0;"/><text fill="#000000" font-family="sans-serif" font-size="14" lengthAdjust="spacing" textLength="275" x="429.5" y="534.7422">List&lt;ApduRequestSpi&gt; getApduRequests ()</text><ellipse cx="420.5" cy="549.0664" fill="#84BE84" rx="3" ry="3" style="stroke:#038048;stroke-width:1.0;"/><text fill="#000000" font-family="sans-serif" font-size="14" lengthAdjust="spacing" textLength="272" x="429.5" y="553.3633">boolean stopOnUnsuccessfulStatusWord ()</text></g><!--class ApduRequestSpi--><g id="elem_ApduRequestSpi"><rect codeLine="74" fill="#FEFECE" height="103.8633" id="ApduRequestSpi" rx="2.5" ry="2.5" style="stroke:#D4AC0D;stroke-width:2.0;" width="294" x="413" y="759.1348"/><ellipse cx="497.25" cy="775.1348" fill="#B4A7E5" rx="11" ry="11" style="stroke:#181818;stroke-width:1.0;"/><path d="M498.2031,771.7754 L498.2031,778.4316 L499.9219,778.4316 Q500.5313,778.4316 500.7969,778.666 Q501.0625,778.9004 501.0625,779.291 Q501.0625,779.666 500.7969,779.9004 Q500.5313,780.1348 499.9219,780.1348 L494.7813,780.1348 Q494.1719,780.1348 493.9063,779.9004 Q493.6406,779.666 493.6406,779.2754 Q493.6406,778.9004 493.9063,778.666 Q494.1719,778.4316 494.7813,778.4316 L496.5,778.4316 L496.5,771.7754 L494.7813,771.7754 Q494.1719,771.7754 493.9063,771.541 Q493.6406,771.3066 493.6406,770.916 Q493.6406,770.541 493.9063,770.3066 Q494.1719,770.0723 494.7813,770.0723 L499.9219,770.0723 Q500.5313,770.0723 500.7969,770.3066 Q501.0625,770.541 501.0625,770.916 Q501.0625,771.3066 500.7969,771.541 Q500.5313,771.7754 499.9219,771.7754 L498.2031,771.7754 Z " fill="#000000"/><ellipse cx="522.75" cy="774.6348" fill="#84BE84" rx="3" ry="3" style="stroke:#038048;stroke-width:1.0;"/><text fill="#000000" font-family="sans-serif" font-size="14" font-style="italic" lengthAdjust="spacing" textLength="106" x="528.75" y="780.9316">ApduRequestSpi</text><line style="stroke:#D4AC0D;stroke-width:2.0;" x1="414" x2="706" y1="791.1348" y2="791.1348"/><line style="stroke:#D4AC0D;stroke-width:2.0;" x1="414" x2="706" y1="799.1348" y2="799.1348"/><ellipse cx="424" cy="813.9453" fill="#84BE84" rx="3" ry="3" style="stroke:#038048;stroke-width:1.0;"/><text fill="#000000" font-family="sans-serif" font-size="14" lengthAdjust="spacing" textLength="106" x="433" y="818.2422">byte[] getApdu ()</text><ellipse cx="424" cy="832.5664" fill="#84BE84" rx="3" ry="3" style="stroke:#038048;stroke-width:1.0;"/><text fill="#000000" font-family="sans-serif" font-size="14" lengthAdjust="spacing" textLength="268" x="433" y="836.8633">Set&lt;Integer&gt; getSuccessfulStatusWords ()</text><ellipse cx="424" cy="851.1875" fill="#84BE84" rx="3" ry="3" style="stroke:#038048;stroke-width:1.0;"/><text fill="#000000" font-family="sans-serif" font-size="14" lengthAdjust="spacing" textLength="98" x="433" y="855.4844">String getInfo ()</text></g><!--class ApiProperties--><g id="elem_ApiProperties"><rect codeLine="80" fill="#FEFECE" height="66.6211" id="ApiProperties" rx="2.5" ry="2.5" style="stroke:#D4AC0D;stroke-width:2.0;" width="193" x="743.5" y="91.6348"/><ellipse cx="758.5" cy="107.6348" fill="#ADD1B2" rx="11" ry="11" style="stroke:#181818;stroke-width:1.0;"/><path d="M761.2656,103.5098 Q761.4219,103.291 761.6094,103.1816 Q761.7969,103.0723 762.0156,103.0723 Q762.3906,103.0723 762.625,103.3379 Q762.8594,103.5879 762.8594,104.1973 L762.8594,105.6504 Q762.8594,106.2598 762.625,106.5254 Q762.3906,106.791 762.0156,106.791 Q761.6719,106.791 761.4688,106.5879 Q761.2656,106.4004 761.1563,105.8848 Q761.1094,105.5254 760.9219,105.3379 Q760.5938,104.9629 759.9844,104.7441 Q759.375,104.5254 758.75,104.5254 Q757.9844,104.5254 757.3438,104.8535 Q756.7188,105.1816 756.2188,105.9316 Q755.7344,106.6816 755.7344,107.7129 L755.7344,108.8066 Q755.7344,110.041 756.625,110.8691 Q757.5156,111.6816 759.1094,111.6816 Q760.0469,111.6816 760.7031,111.4316 Q761.0938,111.2754 761.5156,110.8379 Q761.7813,110.5723 761.9219,110.4941 Q762.0781,110.416 762.2813,110.416 Q762.6094,110.416 762.8594,110.6816 Q763.125,110.9316 763.125,111.2754 Q763.125,111.6191 762.7813,112.0254 Q762.2813,112.6035 761.4844,112.9316 Q760.4063,113.3848 759.1094,113.3848 Q757.5938,113.3848 756.3906,112.7598 Q755.4063,112.2598 754.7188,111.1973 Q754.0313,110.1191 754.0313,108.8379 L754.0313,107.6816 Q754.0313,106.3535 754.6406,105.2129 Q755.2656,104.0566 756.3594,103.4473 Q757.4531,102.8223 758.6875,102.8223 Q759.4219,102.8223 760.0625,102.9941 Q760.7188,103.1504 761.2656,103.5098 Z " fill="#000000"/><ellipse cx="777.5" cy="107.1348" fill="#84BE84" rx="3" ry="3" style="stroke:#038048;stroke-width:1.0;"/><text fill="#000000" font-family="sans-serif" font-size="14" font-weight="bold" lengthAdjust="spacing" textLength="30" x="783.5" y="113.4316">final</text><text fill="#000000" font-family="sans-serif" font-size="14" lengthAdjust="spacing" textLength="116" x="817.5" y="113.4316">CardApiProperties</text><line style="stroke:#D4AC0D;stroke-width:2.0;" x1="744.5" x2="935.5" y1="123.6348" y2="123.6348"/><ellipse cx="754.5" cy="138.4453" fill="none" rx="3" ry="3" style="stroke:#038048;stroke-width:1.0;"/><text fill="#000000" font-family="sans-serif" font-size="14" font-weight="bold" lengthAdjust="spacing" text-decoration="underline" textLength="30" x="763.5" y="142.7422">final</text><text fill="#000000" font-family="sans-serif" font-size="14" lengthAdjust="spacing" text-decoration="underline" textLength="101" x="797.5" y="142.7422">String VERSION</text><line style="stroke:#D4AC0D;stroke-width:2.0;" x1="744.5" x2="935.5" y1="150.2559" y2="150.2559"/></g><!--class ProxyReaderApi--><g id="elem_ProxyReaderApi"><rect codeLine="183" fill="#E9F7EF" height="141.1055" id="ProxyReaderApi" rx="2.5" ry="2.5" style="stroke:#27AE60;stroke-width:2.0;" width="288" x="781" y="447.6348"/><ellipse cx="864.25" cy="463.6348" fill="#B4A7E5" rx="11" ry="11" style="stroke:#181818;stroke-width:1.0;"/><path d="M865.2031,460.2754 L865.2031,466.9316 L866.9219,466.9316 Q867.5313,466.9316 867.7969,467.166 Q868.0625,467.4004 868.0625,467.791 Q868.0625,468.166 867.7969,468.4004 Q867.5313,468.6348 866.9219,468.6348 L861.7813,468.6348 Q861.1719,468.6348 860.9063,468.4004 Q860.6406,468.166 860.6406,467.7754 Q860.6406,467.4004 860.9063,467.166 Q861.1719,466.9316 861.7813,466.9316 L863.5,466.9316 L863.5,460.2754 L861.7813,460.2754 Q861.1719,460.2754 860.9063,460.041 Q860.6406,459.8066 860.6406,459.416 Q860.6406,459.041 860.9063,458.8066 Q861.1719,458.5723 861.7813,458.5723 L866.9219,458.5723 Q867.5313,458.5723 867.7969,458.8066 Q868.0625,459.041 868.0625,459.416 Q868.0625,459.8066 867.7969,460.041 Q867.5313,460.2754 866.9219,460.2754 L865.2031,460.2754 Z " fill="#000000"/><ellipse cx="889.75" cy="463.1348" fill="#84BE84" rx="3" ry="3" style="stroke:#038048;stroke-width:1.0;"/><text fill="#000000" font-family="sans-serif" font-size="14" font-style="italic" lengthAdjust="spacing" textLength="102" x="895.75" y="469.4316">ProxyReaderApi</text><line style="stroke:#27AE60;stroke-width:2.0;" x1="782" x2="1068" y1="479.6348" y2="479.6348"/><line style="stroke:#27AE60;stroke-width:1.0;" x1="782" x2="1068" y1="487.6348" y2="487.6348"/><ellipse cx="792" cy="502.4453" fill="#84BE84" rx="3" ry="3" style="stroke:#038048;stroke-width:1.0;"/><text fill="#000000" font-family="sans-serif" font-size="14" lengthAdjust="spacing" textLength="262" x="801" y="506.7422">CardResponseApi transmitCardRequest (</text><text fill="#000000" font-family="sans-serif" font-size="14" lengthAdjust="spacing" textLength="193" x="833" y="525.3633">CardRequestSpi cardRequest,</text><text fill="#000000" font-family="sans-serif" font-size="14" lengthAdjust="spacing" textLength="204" x="833" y="543.9844">ChannelControl channelControl)</text><text fill="#000000" font-family="sans-serif" font-size="14" lengthAdjust="spacing" textLength="4" x="801" y="562.6055">&#160;</text><ellipse cx="792" cy="576.9297" fill="#84BE84" rx="3" ry="3" style="stroke:#038048;stroke-width:1.0;"/><text fill="#000000" font-family="sans-serif" font-size="14" lengthAdjust="spacing" textLength="144" x="801" y="581.2266">void releaseChannel ()</text></g><!--class ChannelControl--><g id="elem_ChannelControl"><rect codeLine="91" fill="#FEFECE" height="85.2422" id="ChannelControl" rx="2.5" ry="2.5" style="stroke:#D4AC0D;stroke-width:2.0;" width="142" x="854" y="265.1348"/><ellipse cx="869" cy="281.1348" fill="#EB937F" rx="11" ry="11" style="stroke:#181818;stroke-width:1.0;"/><path d="M867.8594,281.9316 L867.8594,284.4316 L872.1875,284.4316 L872.1875,283.5098 Q872.1875,282.9004 872.4219,282.6348 Q872.6719,282.3691 873.0469,282.3691 Q873.4219,282.3691 873.6563,282.6348 Q873.8906,282.9004 873.8906,283.5098 L873.8906,286.1348 L865.8906,286.1348 Q865.2656,286.1348 865,285.9004 Q864.75,285.666 864.75,285.2754 Q864.75,284.9004 865.0156,284.666 Q865.2813,284.4316 865.8906,284.4316 L866.1563,284.4316 L866.1563,277.7754 L865.8906,277.7754 Q865.2656,277.7754 865,277.541 Q864.75,277.3066 864.75,276.916 Q864.75,276.541 865,276.3066 Q865.2656,276.0723 865.8906,276.0723 L873.5156,276.0723 L873.5156,278.666 Q873.5156,279.2754 873.2813,279.541 Q873.0625,279.791 872.6719,279.791 Q872.2969,279.791 872.0625,279.541 Q871.8281,279.2754 871.8281,278.666 L871.8281,277.7754 L867.8594,277.7754 L867.8594,280.2285 L869.3438,280.2285 Q869.3438,279.5723 869.4688,279.3848 Q869.7344,278.9785 870.2031,278.9785 Q870.5781,278.9785 870.8125,279.2441 Q871.0469,279.4941 871.0469,280.1035 L871.0469,282.0723 Q871.0469,282.6191 870.9219,282.8066 Q870.6563,283.1973 870.2031,283.1973 Q869.7344,283.1973 869.4688,282.791 Q869.3438,282.6035 869.3438,281.9316 L867.8594,281.9316 Z " fill="#000000"/><ellipse cx="888" cy="280.6348" fill="#84BE84" rx="3" ry="3" style="stroke:#038048;stroke-width:1.0;"/><text fill="#000000" font-family="sans-serif" font-size="14" lengthAdjust="spacing" textLength="99" x="894" y="286.9316">ChannelControl</text><line style="stroke:#D4AC0D;stroke-width:2.0;" x1="855" x2="995" y1="297.1348" y2="297.1348"/><text fill="#000000" font-family="sans-serif" font-size="14" lengthAdjust="spacing" textLength="82" x="860" y="316.2422">KEEP_OPEN</text><text fill="#000000" font-family="sans-serif" font-size="14" lengthAdjust="spacing" textLength="101" x="860" y="334.8633">CLOSE_AFTER</text><line style="stroke:#D4AC0D;stroke-width:2.0;" x1="855" x2="995" y1="342.377" y2="342.377"/></g><!--class CardSelectionResponseApi--><g id="elem_CardSelectionResponseApi"><rect codeLine="185" fill="#F4ECF7" height="122.4844" id="CardSelectionResponseApi" rx="2.5" ry="2.5" style="stroke:#8E44AD;stroke-width:2.0;" width="353" x="1143.5" y="246.6348"/><ellipse cx="1223.75" cy="262.6348" fill="#B4A7E5" rx="11" ry="11" style="stroke:#181818;stroke-width:1.0;"/><path d="M1224.7031,259.2754 L1224.7031,265.9316 L1226.4219,265.9316 Q1227.0313,265.9316 1227.2969,266.166 Q1227.5625,266.4004 1227.5625,266.791 Q1227.5625,267.166 1227.2969,267.4004 Q1227.0313,267.6348 1226.4219,267.6348 L1221.2813,267.6348 Q1220.6719,267.6348 1220.4063,267.4004 Q1220.1406,267.166 1220.1406,266.7754 Q1220.1406,266.4004 1220.4063,266.166 Q1220.6719,265.9316 1221.2813,265.9316 L1223,265.9316 L1223,259.2754 L1221.2813,259.2754 Q1220.6719,259.2754 1220.4063,259.041 Q1220.1406,258.8066 1220.1406,258.416 Q1220.1406,258.041 1220.4063,257.8066 Q1220.6719,257.5723 1221.2813,257.5723 L1226.4219,257.5723 Q1227.0313,257.5723 1227.2969,257.8066 Q1227.5625,258.041 1227.5625,258.416 Q1227.5625,258.8066 1227.2969,259.041 Q1227.0313,259.2754 1226.4219,259.2754 L1224.7031,259.2754 Z " fill="#000000"/><ellipse cx="1249.25" cy="262.1348" fill="#84BE84" rx="3" ry="3" style="stroke:#038048;stroke-width:1.0;"/><text fill="#000000" font-family="sans-serif" font-size="14" font-style="italic" lengthAdjust="spacing" textLength="173" x="1255.25" y="268.4316">CardSelectionResponseApi</text><line style="stroke:#8E44AD;stroke-width:2.0;" x1="1144.5" x2="1495.5" y1="278.6348" y2="278.6348"/><line style="stroke:#8E44AD;stroke-width:2.0;" x1="1144.5" x2="1495.5" y1="286.6348" y2="286.6348"/><ellipse cx="1154.5" cy="301.4453" fill="#84BE84" rx="3" ry="3" style="stroke:#038048;stroke-width:1.0;"/><text fill="#000000" font-family="sans-serif" font-size="14" lengthAdjust="spacing" textLength="163" x="1163.5" y="305.7422">String getPowerOnData ()</text><ellipse cx="1154.5" cy="320.0664" fill="#84BE84" rx="3" ry="3" style="stroke:#038048;stroke-width:1.0;"/><text fill="#000000" font-family="sans-serif" font-size="14" lengthAdjust="spacing" textLength="327" x="1163.5" y="324.3633">ApduResponseApi getSelectApplicationResponse ()</text><ellipse cx="1154.5" cy="338.6875" fill="#84BE84" rx="3" ry="3" style="stroke:#038048;stroke-width:1.0;"/><text fill="#000000" font-family="sans-serif" font-size="14" lengthAdjust="spacing" textLength="146" x="1163.5" y="342.9844">boolean hasMatched ()</text><ellipse cx="1154.5" cy="357.3086" fill="#84BE84" rx="3" ry="3" style="stroke:#038048;stroke-width:1.0;"/><text fill="#000000" font-family="sans-serif" font-size="14" lengthAdjust="spacing" textLength="248" x="1163.5" y="361.6055">CardResponseApi getCardResponse ()</text></g><!--class CardResponseApi--><g id="elem_CardResponseApi"><rect codeLine="186" fill="#F4ECF7" height="100.4844" id="CardResponseApi" rx="2.5" ry="2.5" style="stroke:#8E44AD;stroke-width:2.0;" width="323" x="1158.5" y="468.1348"/><ellipse cx="1252.75" cy="491.7559" fill="#B4A7E5" rx="11" ry="11" style="stroke:#181818;stroke-width:1.0;"/><path d="M1253.7031,488.3965 L1253.7031,495.0527 L1255.4219,495.0527 Q1256.0313,495.0527 1256.2969,495.2871 Q1256.5625,495.5215 1256.5625,495.9121 Q1256.5625,496.2871 1256.2969,496.5215 Q1256.0313,496.7559 1255.4219,496.7559 L1250.2813,496.7559 Q1249.6719,496.7559 1249.4063,496.5215 Q1249.1406,496.2871 1249.1406,495.8965 Q1249.1406,495.5215 1249.4063,495.2871 Q1249.6719,495.0527 1250.2813,495.0527 L1252,495.0527 L1252,488.3965 L1250.2813,488.3965 Q1249.6719,488.3965 1249.4063,488.1621 Q1249.1406,487.9277 1249.1406,487.5371 Q1249.1406,487.1621 1249.4063,486.9277 Q1249.6719,486.6934 1250.2813,486.6934 L1255.4219,486.6934 Q1256.0313,486.6934 1256.2969,486.9277 Q1256.5625,487.1621 1256.5625,487.5371 Q1256.5625,487.9277 1256.2969,488.1621 Q1256.0313,488.3965 1255.4219,488.3965 L1253.7031,488.3965 Z " fill="#000000"/><ellipse cx="1278.25" cy="491.2559" fill="#84BE84" rx="3" ry="3" style="stroke:#038048;stroke-width:1.0;"/><text fill="#000000" font-family="sans-serif" font-size="14" font-style="italic" lengthAdjust="spacing" textLength="89" x="1297.25" y="488.2422">&#171;Serializable&#187;</text><text fill="#000000" font-family="sans-serif" font-size="14" font-style="italic" lengthAdjust="spacing" textLength="115" x="1284.25" y="506.8633">CardResponseApi</text><line style="stroke:#8E44AD;stroke-width:2.0;" x1="1159.5" x2="1480.5" y1="515.377" y2="515.377"/><line style="stroke:#8E44AD;stroke-width:2.0;" x1="1159.5" x2="1480.5" y1="523.377" y2="523.377"/><ellipse cx="1169.5" cy="538.1875" fill="#84BE84" rx="3" ry="3" style="stroke:#038048;stroke-width:1.0;"/><text fill="#000000" font-family="sans-serif" font-size="14" lengthAdjust="spacing" textLength="297" x="1178.5" y="542.4844">List&lt;ApduResponseApi&gt; getApduResponses ()</text><ellipse cx="1169.5" cy="556.8086" fill="#84BE84" rx="3" ry="3" style="stroke:#038048;stroke-width:1.0;"/><text fill="#000000" font-family="sans-serif" font-size="14" lengthAdjust="spacing" textLength="212" x="1178.5" y="561.1055">boolean isLogicalChannelOpen ()</text></g><!--class ApduResponseApi--><g id="elem_ApduResponseApi"><rect codeLine="187" fill="#F4ECF7" height="119.1055" id="ApduResponseApi" rx="2.5" ry="2.5" style="stroke:#8E44AD;stroke-width:2.0;" width="160" x="1368" y="751.6348"/><ellipse cx="1383" cy="775.2559" fill="#B4A7E5" rx="11" ry="11" style="stroke:#181818;stroke-width:1.0;"/><path d="M1383.9531,771.8965 L1383.9531,778.5527 L1385.6719,778.5527 Q1386.2813,778.5527 1386.5469,778.7871 Q1386.8125,779.0215 1386.8125,779.4121 Q1386.8125,779.7871 1386.5469,780.0215 Q1386.2813,780.2559 1385.6719,780.2559 L1380.5313,780.2559 Q1379.9219,780.2559 1379.6563,780.0215 Q1379.3906,779.7871 1379.3906,779.3965 Q1379.3906,779.0215 1379.6563,778.7871 Q1379.9219,778.5527 1380.5313,778.5527 L1382.25,778.5527 L1382.25,771.8965 L1380.5313,771.8965 Q1379.9219,771.8965 1379.6563,771.6621 Q1379.3906,771.4277 1379.3906,771.0371 Q1379.3906,770.6621 1379.6563,770.4277 Q1379.9219,770.1934 1380.5313,770.1934 L1385.6719,770.1934 Q1386.2813,770.1934 1386.5469,770.4277 Q1386.8125,770.6621 1386.8125,771.0371 Q1386.8125,771.4277 1386.5469,771.6621 Q1386.2813,771.8965 1385.6719,771.8965 L1383.9531,771.8965 Z " fill="#000000"/><ellipse cx="1402" cy="774.7559" fill="#84BE84" rx="3" ry="3" style="stroke:#038048;stroke-width:1.0;"/><text fill="#000000" font-family="sans-serif" font-size="14" font-style="italic" lengthAdjust="spacing" textLength="89" x="1422" y="771.7422">&#171;Serializable&#187;</text><text fill="#000000" font-family="sans-serif" font-size="14" font-style="italic" lengthAdjust="spacing" textLength="117" x="1408" y="790.3633">ApduResponseApi</text><line style="stroke:#8E44AD;stroke-width:2.0;" x1="1369" x2="1527" y1="798.877" y2="798.877"/><line style="stroke:#8E44AD;stroke-width:2.0;" x1="1369" x2="1527" y1="806.877" y2="806.877"/><ellipse cx="1379" cy="821.6875" fill="#84BE84" rx="3" ry="3" style="stroke:#038048;stroke-width:1.0;"/><text fill="#000000" font-family="sans-serif" font-size="14" lengthAdjust="spacing" textLength="106" x="1388" y="825.9844">byte[] getApdu ()</text><ellipse cx="1379" cy="840.3086" fill="#84BE84" rx="3" ry="3" style="stroke:#038048;stroke-width:1.0;"/><text fill="#000000" font-family="sans-serif" font-size="14" lengthAdjust="spacing" textLength="126" x="1388" y="844.6055">byte[] getDataOut ()</text><ellipse cx="1379" cy="858.9297" fill="#84BE84" rx="3" ry="3" style="stroke:#038048;stroke-width:1.0;"/><text fill="#000000" font-family="sans-serif" font-size="14" lengthAdjust="spacing" textLength="127" x="1388" y="863.2266">int getStatusWord ()</text></g><!--class AbstractApduException--><g id="elem_AbstractApduException"><rect codeLine="188" fill="#F4ECF7" height="286.6953" id="AbstractApduException" rx="2.5" ry="2.5" style="stroke:#8E44AD;stroke-width:2.0;" width="293" x="969.5" y="667.6348"/><ellipse cx="1033.25" cy="691.2559" fill="#A9DCDF" rx="11" ry="11" style="stroke:#181818;stroke-width:1.0;"/><path d="M1035.4375,693.0215 L1031.2969,693.0215 L1030.875,694.0527 L1031.2969,694.0527 Q1031.9063,694.0527 1032.1719,694.2871 Q1032.4375,694.5215 1032.4375,694.9121 Q1032.4375,695.2871 1032.1719,695.5215 Q1031.9063,695.7559 1031.2969,695.7559 L1029,695.7559 Q1028.3906,695.7559 1028.1406,695.5215 Q1027.875,695.2871 1027.875,694.8965 Q1027.875,694.5215 1028.1563,694.2871 Q1028.4219,694.0371 1029.0469,694.0527 L1031.7188,687.3965 L1030.6094,687.3965 Q1030,687.3965 1029.7344,687.1621 Q1029.4688,686.9277 1029.4688,686.5371 Q1029.4688,686.1621 1029.7344,685.9277 Q1030,685.6934 1030.6094,685.6934 L1034.2813,685.6934 L1037.6719,694.0527 Q1038.2656,694.0527 1038.4531,694.1934 Q1038.8438,694.459 1038.8438,694.9121 Q1038.8438,695.2871 1038.5781,695.5215 Q1038.3281,695.7559 1037.7188,695.7559 L1035.4219,695.7559 Q1034.8125,695.7559 1034.5469,695.5215 Q1034.2813,695.2871 1034.2813,694.8965 Q1034.2813,694.5215 1034.5469,694.2871 Q1034.8125,694.0527 1035.4219,694.0527 L1035.8438,694.0527 L1035.4375,693.0215 Z M1034.7188,691.3184 L1033.3594,687.9434 L1031.9844,691.3184 L1034.7188,691.3184 Z " fill="#000000"/><ellipse cx="1058.75" cy="690.7559" fill="#84BE84" rx="3" ry="3" style="stroke:#038048;stroke-width:1.0;"/><text fill="#000000" font-family="sans-serif" font-size="14" font-style="italic" lengthAdjust="spacing" textLength="77" x="1099.25" y="687.7422">&#171;Exception&#187;</text><text fill="#000000" font-family="sans-serif" font-size="14" font-style="italic" lengthAdjust="spacing" textLength="146" x="1064.75" y="706.3633">AbstractApduException</text><line style="stroke:#8E44AD;stroke-width:2.0;" x1="970.5" x2="1261.5" y1="714.877" y2="714.877"/><line style="stroke:#8E44AD;stroke-width:1.0;" x1="970.5" x2="1261.5" y1="722.877" y2="722.877"/><polygon fill="#FFFF44" points="980.5,732.6875,984.5,736.6875,980.5,740.6875,976.5,736.6875" style="stroke:#B38D22;stroke-width:1.0;"/><text fill="#000000" font-family="sans-serif" font-size="14" lengthAdjust="spacing" textLength="155" x="989.5" y="741.9844">AbstractApduException (</text><text fill="#000000" font-family="sans-serif" font-size="14" lengthAdjust="spacing" textLength="235" x="1021.5" y="760.6055">CardResponseApi cardResponseApi,</text><text fill="#000000" font-family="sans-serif" font-size="14" lengthAdjust="spacing" textLength="224" x="1021.5" y="779.2266">boolean isCardResponseComplete,</text><text fill="#000000" font-family="sans-serif" font-size="14" lengthAdjust="spacing" textLength="103" x="1021.5" y="797.8477">String message)</text><polygon fill="#FFFF44" points="980.5,807.1719,984.5,811.1719,980.5,815.1719,976.5,811.1719" style="stroke:#B38D22;stroke-width:1.0;"/><text fill="#000000" font-family="sans-serif" font-size="14" lengthAdjust="spacing" textLength="155" x="989.5" y="816.4688">AbstractApduException (</text><text fill="#000000" font-family="sans-serif" font-size="14" lengthAdjust="spacing" textLength="235" x="1021.5" y="835.0898">CardResponseApi cardResponseApi,</text><text fill="#000000" font-family="sans-serif" font-size="14" lengthAdjust="spacing" textLength="224" x="1021.5" y="853.7109">boolean isCardResponseComplete,</text><text fill="#000000" font-family="sans-serif" font-size="14" lengthAdjust="spacing" textLength="102" x="1021.5" y="872.332">String message,</text><text fill="#000000" font-family="sans-serif" font-size="14" lengthAdjust="spacing" textLength="113" x="1021.5" y="890.9531">Throwable cause)</text><text fill="#000000" font-family="sans-serif" font-size="14" lengthAdjust="spacing" textLength="4" x="989.5" y="909.5742">&#160;</text><ellipse cx="980.5" cy="923.8984" fill="#84BE84" rx="3" ry="3" style="stroke:#038048;stroke-width:1.0;"/><text fill="#000000" font-family="sans-serif" font-size="14" lengthAdjust="spacing" textLength="248" x="989.5" y="928.1953">CardResponseApi getCardResponse ()</text><ellipse cx="980.5" cy="942.5195" fill="#84BE84" rx="3" ry="3" style="stroke:#038048;stroke-width:1.0;"/><text fill="#000000" font-family="sans-serif" font-size="14" lengthAdjust="spacing" textLength="234" x="989.5" y="946.8164">boolean isCardResponseComplete ()</text></g><!--class ReaderBrokenCommunicationException--><g id="elem_ReaderBrokenCommunicationException"><rect codeLine="189" fill="#F4ECF7" height="122.4844" id="ReaderBrokenCommunicationException" rx="2.5" ry="2.5" style="stroke:#8E44AD;stroke-width:2.0;" width="516" x="312" y="1015.6348"/><ellipse cx="435.25" cy="1031.6348" fill="#ADD1B2" rx="11" ry="11" style="stroke:#181818;stroke-width:1.0;"/><path d="M438.0156,1027.5098 Q438.1719,1027.291 438.3594,1027.1816 Q438.5469,1027.0723 438.7656,1027.0723 Q439.1406,1027.0723 439.375,1027.3379 Q439.6094,1027.5879 439.6094,1028.1973 L439.6094,1029.6504 Q439.6094,1030.2598 439.375,1030.5254 Q439.1406,1030.791 438.7656,1030.791 Q438.4219,1030.791 438.2188,1030.5879 Q438.0156,1030.4004 437.9063,1029.8848 Q437.8594,1029.5254 437.6719,1029.3379 Q437.3438,1028.9629 436.7344,1028.7441 Q436.125,1028.5254 435.5,1028.5254 Q434.7344,1028.5254 434.0938,1028.8535 Q433.4688,1029.1816 432.9688,1029.9316 Q432.4844,1030.6816 432.4844,1031.7129 L432.4844,1032.8066 Q432.4844,1034.041 433.375,1034.8691 Q434.2656,1035.6816 435.8594,1035.6816 Q436.7969,1035.6816 437.4531,1035.4316 Q437.8438,1035.2754 438.2656,1034.8379 Q438.5313,1034.5723 438.6719,1034.4941 Q438.8281,1034.416 439.0313,1034.416 Q439.3594,1034.416 439.6094,1034.6816 Q439.875,1034.9316 439.875,1035.2754 Q439.875,1035.6191 439.5313,1036.0254 Q439.0313,1036.6035 438.2344,1036.9316 Q437.1563,1037.3848 435.8594,1037.3848 Q434.3438,1037.3848 433.1406,1036.7598 Q432.1563,1036.2598 431.4688,1035.1973 Q430.7813,1034.1191 430.7813,1032.8379 L430.7813,1031.6816 Q430.7813,1030.3535 431.3906,1029.2129 Q432.0156,1028.0566 433.1094,1027.4473 Q434.2031,1026.8223 435.4375,1026.8223 Q436.1719,1026.8223 436.8125,1026.9941 Q437.4688,1027.1504 438.0156,1027.5098 Z " fill="#000000"/><ellipse cx="460.75" cy="1031.1348" fill="#84BE84" rx="3" ry="3" style="stroke:#038048;stroke-width:1.0;"/><text fill="#000000" font-family="sans-serif" font-size="14" lengthAdjust="spacing" textLength="250" x="466.75" y="1037.4316">ReaderBrokenCommunicationException</text><line style="stroke:#8E44AD;stroke-width:2.0;" x1="313" x2="827" y1="1047.6348" y2="1047.6348"/><line style="stroke:#8E44AD;stroke-width:1.0;" x1="313" x2="827" y1="1055.6348" y2="1055.6348"/><ellipse cx="323" cy="1070.4453" fill="#84BE84" rx="3" ry="3" style="stroke:#038048;stroke-width:1.0;"/><text fill="#000000" font-family="sans-serif" font-size="14" lengthAdjust="spacing" textLength="490" x="332" y="1074.7422">ReaderBrokenCommunicationException (CardResponseApi cardResponseApi</text><text fill="#000000" font-family="sans-serif" font-size="14" lengthAdjust="spacing" textLength="331" x="364" y="1093.3633">boolean isCardResponseComplete, String message)</text><ellipse cx="323" cy="1107.6875" fill="#84BE84" rx="3" ry="3" style="stroke:#038048;stroke-width:1.0;"/><text fill="#000000" font-family="sans-serif" font-size="14" lengthAdjust="spacing" textLength="490" x="332" y="1111.9844">ReaderBrokenCommunicationException (CardResponseApi cardResponseApi</text><text fill="#000000" font-family="sans-serif" font-size="14" lengthAdjust="spacing" textLength="447" x="364" y="1130.6055">boolean isCardResponseComplete, String message, Throwable cause)</text></g><!--class CardBrokenCommunicationException--><g id="elem_CardBrokenCommunicationException"><rect codeLine="190" fill="#F4ECF7" height="122.4844" id="CardBrokenCommunicationException" rx="2.5" ry="2.5" style="stroke:#8E44AD;stroke-width:2.0;" width="505" x="863.5" y="1015.6348"/><ellipse cx="989.25" cy="1031.6348" fill="#ADD1B2" rx="11" ry="11" style="stroke:#181818;stroke-width:1.0;"/><path d="M992.0156,1027.5098 Q992.1719,1027.291 992.3594,1027.1816 Q992.5469,1027.0723 992.7656,1027.0723 Q993.1406,1027.0723 993.375,1027.3379 Q993.6094,1027.5879 993.6094,1028.1973 L993.6094,1029.6504 Q993.6094,1030.2598 993.375,1030.5254 Q993.1406,1030.791 992.7656,1030.791 Q992.4219,1030.791 992.2188,1030.5879 Q992.0156,1030.4004 991.9063,1029.8848 Q991.8594,1029.5254 991.6719,1029.3379 Q991.3438,1028.9629 990.7344,1028.7441 Q990.125,1028.5254 989.5,1028.5254 Q988.7344,1028.5254 988.0938,1028.8535 Q987.4688,1029.1816 986.9688,1029.9316 Q986.4844,1030.6816 986.4844,1031.7129 L986.4844,1032.8066 Q986.4844,1034.041 987.375,1034.8691 Q988.2656,1035.6816 989.8594,1035.6816 Q990.7969,1035.6816 991.4531,1035.4316 Q991.8438,1035.2754 992.2656,1034.8379 Q992.5313,1034.5723 992.6719,1034.4941 Q992.8281,1034.416 993.0313,1034.416 Q993.3594,1034.416 993.6094,1034.6816 Q993.875,1034.9316 993.875,1035.2754 Q993.875,1035.6191 993.5313,1036.0254 Q993.0313,1036.6035 992.2344,1036.9316 Q991.1563,1037.3848 989.8594,1037.3848 Q988.3438,1037.3848 987.1406,1036.7598 Q986.1563,1036.2598 985.4688,1035.1973 Q984.7813,1034.1191 984.7813,1032.8379 L984.7813,1031.6816 Q984.7813,1030.3535 985.3906,1029.2129 Q986.0156,1028.0566 987.1094,1027.4473 Q988.2031,1026.8223 989.4375,1026.8223 Q990.1719,1026.8223 990.8125,1026.9941 Q991.4688,1027.1504 992.0156,1027.5098 Z " fill="#000000"/><ellipse cx="1014.75" cy="1031.1348" fill="#84BE84" rx="3" ry="3" style="stroke:#038048;stroke-width:1.0;"/><text fill="#000000" font-family="sans-serif" font-size="14" lengthAdjust="spacing" textLength="234" x="1020.75" y="1037.4316">CardBrokenCommunicationException</text><line style="stroke:#8E44AD;stroke-width:2.0;" x1="864.5" x2="1367.5" y1="1047.6348" y2="1047.6348"/><line style="stroke:#8E44AD;stroke-width:1.0;" x1="864.5" x2="1367.5" y1="1055.6348" y2="1055.6348"/><ellipse cx="874.5" cy="1070.4453" fill="#84BE84" rx="3" ry="3" style="stroke:#038048;stroke-width:1.0;"/><text fill="#000000" font-family="sans-serif" font-size="14" lengthAdjust="spacing" textLength="474" x="883.5" y="1074.7422">CardBrokenCommunicationException (CardResponseApi cardResponseApi</text><text fill="#000000" font-family="sans-serif" font-size="14" lengthAdjust="spacing" textLength="331" x="915.5" y="1093.3633">boolean isCardResponseComplete, String message)</text><ellipse cx="874.5" cy="1107.6875" fill="#84BE84" rx="3" ry="3" style="stroke:#038048;stroke-width:1.0;"/><text fill="#000000" font-family="sans-serif" font-size="14" lengthAdjust="spacing" textLength="474" x="883.5" y="1111.9844">CardBrokenCommunicationException (CardResponseApi cardResponseApi</text><text fill="#000000" font-family="sans-serif" font-size="14" lengthAdjust="spacing" textLength="447" x="915.5" y="1130.6055">boolean isCardResponseComplete, String message, Throwable cause)</text></g><!--class UnexpectedStatusWordException--><g id="elem_UnexpectedStatusWordException"><rect codeLine="191" fill="#F4ECF7" height="122.4844" id="UnexpectedStatusWordException" rx="2.5" ry="2.5" style="stroke:#8E44AD;stroke-width:2.0;" width="505" x="1403.5" y="1015.6348"/><ellipse cx="1541.75" cy="1031.6348" fill="#ADD1B2" rx="11" ry="11" style="stroke:#181818;stroke-width:1.0;"/><path d="M1544.5156,1027.5098 Q1544.6719,1027.291 1544.8594,1027.1816 Q1545.0469,1027.0723 1545.2656,1027.0723 Q1545.6406,1027.0723 1545.875,1027.3379 Q1546.1094,1027.5879 1546.1094,1028.1973 L1546.1094,1029.6504 Q1546.1094,1030.2598 1545.875,1030.5254 Q1545.6406,1030.791 1545.2656,1030.791 Q1544.9219,1030.791 1544.7188,1030.5879 Q1544.5156,1030.4004 1544.4063,1029.8848 Q1544.3594,1029.5254 1544.1719,1029.3379 Q1543.8438,1028.9629 1543.2344,1028.7441 Q1542.625,1028.5254 1542,1028.5254 Q1541.2344,1028.5254 1540.5938,1028.8535 Q1539.9688,1029.1816 1539.4688,1029.9316 Q1538.9844,1030.6816 1538.9844,1031.7129 L1538.9844,1032.8066 Q1538.9844,1034.041 1539.875,1034.8691 Q1540.7656,1035.6816 1542.3594,1035.6816 Q1543.2969,1035.6816 1543.9531,1035.4316 Q1544.3438,1035.2754 1544.7656,1034.8379 Q1545.0313,1034.5723 1545.1719,1034.4941 Q1545.3281,1034.416 1545.5313,1034.416 Q1545.8594,1034.416 1546.1094,1034.6816 Q1546.375,1034.9316 1546.375,1035.2754 Q1546.375,1035.6191 1546.0313,1036.0254 Q1545.5313,1036.6035 1544.7344,1036.9316 Q1543.6563,1037.3848 1542.3594,1037.3848 Q1540.8438,1037.3848 1539.6406,1036.7598 Q1538.6563,1036.2598 1537.9688,1035.1973 Q1537.2813,1034.1191 1537.2813,1032.8379 L1537.2813,1031.6816 Q1537.2813,1030.3535 1537.8906,1029.2129 Q1538.5156,1028.0566 1539.6094,1027.4473 Q1540.7031,1026.8223 1541.9375,1026.8223 Q1542.6719,1026.8223 1543.3125,1026.9941 Q1543.9688,1027.1504 1544.5156,1027.5098 Z " fill="#000000"/><ellipse cx="1567.25" cy="1031.1348" fill="#84BE84" rx="3" ry="3" style="stroke:#038048;stroke-width:1.0;"/><text fill="#000000" font-family="sans-serif" font-size="14" lengthAdjust="spacing" textLength="209" x="1573.25" y="1037.4316">UnexpectedStatusWordException</text><line style="stroke:#8E44AD;stroke-width:2.0;" x1="1404.5" x2="1907.5" y1="1047.6348" y2="1047.6348"/><line style="stroke:#8E44AD;stroke-width:1.0;" x1="1404.5" x2="1907.5" y1="1055.6348" y2="1055.6348"/><ellipse cx="1414.5" cy="1070.4453" fill="#84BE84" rx="3" ry="3" style="stroke:#038048;stroke-width:1.0;"/><text fill="#000000" font-family="sans-serif" font-size="14" lengthAdjust="spacing" textLength="449" x="1423.5" y="1074.7422">UnexpectedStatusWordException (CardResponseApi cardResponseApi</text><text fill="#000000" font-family="sans-serif" font-size="14" lengthAdjust="spacing" textLength="331" x="1455.5" y="1093.3633">boolean isCardResponseComplete, String message)</text><ellipse cx="1414.5" cy="1107.6875" fill="#84BE84" rx="3" ry="3" style="stroke:#038048;stroke-width:1.0;"/><text fill="#000000" font-family="sans-serif" font-size="14" lengthAdjust="spacing" textLength="449" x="1423.5" y="1111.9844">UnexpectedStatusWordException (CardResponseApi cardResponseApi</text><text fill="#000000" font-family="sans-serif" font-size="14" lengthAdjust="spacing" textLength="447" x="1455.5" y="1130.6055">boolean isCardResponseComplete, String message, Throwable cause)</text></g><!--reverse link AbstractApduException to ReaderBrokenCommunicationException--><g id="link_AbstractApduException_ReaderBrokenCommunicationException"><path d="M951.159,891.6878 C868.646,931.5078 770.409,978.9168 694.333,1015.6318 " fill="none" id="AbstractApduException-backto-ReaderBrokenCommunicationException" style="stroke:#181818;stroke-width:2.0;"/><polygon fill="none" points="948.268,885.3098,969.323,882.9208,954.353,897.9178,948.268,885.3098" style="stroke:#181818;stroke-width:2.0;"/></g><!--reverse link AbstractApduException to CardBrokenCommunicationException--><g id="link_AbstractApduException_CardBrokenCommunicationException"><path d="M1116,975.1128 C1116,989.3728 1116,1003.1158 1116,1015.6188 " fill="none" id="AbstractApduException-backto-CardBrokenCommunicationException" style="stroke:#181818;stroke-width:2.0;"/><polygon fill="none" points="1109,974.6818,1116,954.6818,1123,974.6818,1109,974.6818" style="stroke:#181818;stroke-width:2.0;"/></g><!--reverse link AbstractApduException to UnexpectedStatusWordException--><g id="link_AbstractApduException_UnexpectedStatusWordException"><path d="M1280.11,916.3788 C1303.56,929.8788 1327.65,943.0258 1351,954.6348 C1395.12,976.5718 1444.25,997.4988 1489.96,1015.5938 " fill="none" id="AbstractApduException-backto-UnexpectedStatusWordException" style="stroke:#181818;stroke-width:2.0;"/><polygon fill="none" points="1276.5,922.3768,1262.75,906.2568,1283.55,910.2828,1276.5,922.3768" style="stroke:#181818;stroke-width:2.0;"/></g><!--link CardSelectionExtensionSpi to ParseException--><g id="link_CardSelectionExtensionSpi_ParseException"><path codeLine="151" d="M227.414,167.7878 C188.671,185.5898 152.107,210.8558 129,246.6348 C85.8208,313.4948 126.434,405.8888 161.104,463.5428 " fill="none" id="CardSelectionExtensionSpi-to-ParseException" style="stroke:#3498DB;stroke-width:2.0;stroke-dasharray:7.0,7.0;"/><polygon fill="#3498DB" points="163.8,467.9768,162.5435,458.2084,161.203,463.7041,155.7073,462.3636,163.8,467.9768" style="stroke:#3498DB;stroke-width:2.0;"/><polygon fill="#000000" points="132.9061,312.6592,137.7527,304.4761,132.0172,303.1902,132.9061,312.6592" style="stroke:#000000;stroke-width:1.0;"/><text fill="#000000" font-family="sans-serif" font-size="13" lengthAdjust="spacing" textLength="31" x="143" y="313.1631">throw</text></g><!--link CardSelectionExtensionSpi to SmartCardSpi--><g id="link_CardSelectionExtensionSpi_SmartCardSpi"><path codeLine="152" d="M363.993,167.9988 C337.811,202.2438 301.54,249.6858 278.938,279.2478 " fill="none" id="CardSelectionExtensionSpi-to-SmartCardSpi" style="stroke:#3498DB;stroke-width:2.0;stroke-dasharray:7.0,7.0;"/><polygon fill="#3498DB" points="275.706,283.4758,284.3498,278.7551,278.7427,279.5035,277.9942,273.8964,275.706,283.4758" style="stroke:#3498DB;stroke-width:2.0;"/><polygon fill="#000000" points="341.9631,211.2524,349.7916,205.8518,345.1221,202.2818,341.9631,211.2524" style="stroke:#000000;stroke-width:1.0;"/><text fill="#000000" font-family="sans-serif" font-size="13" lengthAdjust="spacing" textLength="40" x="354" y="212.6631">provide</text></g><!--link CardSelectionExtensionSpi to CardSelectionRequestSpi--><g id="link_CardSelectionExtensionSpi_CardSelectionRequestSpi"><path codeLine="153" d="M428.239,167.9988 C449.642,195.7918 477.739,232.2778 499.736,260.8428 " fill="none" id="CardSelectionExtensionSpi-to-CardSelectionRequestSpi" style="stroke:#3498DB;stroke-width:2.0;stroke-dasharray:7.0,7.0;"/><polygon fill="#3498DB" points="502.936,264.9978,500.6149,255.4263,499.8857,261.036,494.2761,260.3068,502.936,264.9978" style="stroke:#3498DB;stroke-width:2.0;"/><polygon fill="#000000" points="474.0507,211.2418,470.8605,202.2822,466.2035,205.8685,474.0507,211.2418" style="stroke:#000000;stroke-width:1.0;"/><text fill="#000000" font-family="sans-serif" font-size="13" lengthAdjust="spacing" textLength="40" x="480" y="212.6631">provide</text></g><!--link CardSelectionExtensionSpi to CardSelectionResponseApi--><g id="link_CardSelectionExtensionSpi_CardSelectionResponseApi"><path codeLine="154" d="M609.447,167.6958 C728.51,190.8938 879.497,220.3348 1014,246.6348 C1054.21,254.4958 1097.38,262.9528 1138.25,270.9658 " fill="none" id="CardSelectionExtensionSpi-to-CardSelectionResponseApi" style="stroke:#27AE60;stroke-width:2.0;stroke-dasharray:7.0,7.0;"/><polygon fill="#27AE60" points="1143.23,271.9408,1135.1784,266.2687,1138.3252,270.9695,1133.6244,274.1163,1143.23,271.9408" style="stroke:#27AE60;stroke-width:2.0;"/><polygon fill="#000000" points="854.9073,208.2386,846.5932,203.6205,845.4666,209.3894,854.9073,208.2386" style="stroke:#000000;stroke-width:1.0;"/><text fill="#000000" font-family="sans-serif" font-size="13" lengthAdjust="spacing" textLength="21" x="859" y="212.6631">use</text></g><!--link CardSelectionRequestSpi to CardRequestSpi--><g id="link_CardSelectionRequestSpi_CardRequestSpi"><path codeLine="156" d="M539.999,350.3268 C544.155,384.9868 550.066,434.2868 554.384,470.3008 " fill="none" id="CardSelectionRequestSpi-to-CardRequestSpi" style="stroke:#3498DB;stroke-width:2.0;stroke-dasharray:7.0,7.0;"/><polygon fill="#3498DB" points="555.01,475.5148,557.9092,466.1023,554.4143,470.5504,549.9662,467.0555,555.01,475.5148" style="stroke:#3498DB;stroke-width:2.0;"/><polygon fill="#000000" points="553.5952,413.2447,555.4365,403.9141,549.6004,404.6138,553.5952,413.2447" style="stroke:#000000;stroke-width:1.0;"/><text fill="#000000" font-family="sans-serif" font-size="13" lengthAdjust="spacing" textLength="40" x="562" y="413.6631">provide</text></g><!--link CardRequestSpi to ApduRequestSpi--><g id="link_CardRequestSpi_ApduRequestSpi"><path codeLine="158" d="M560,560.8278 C560,611.5518 560,697.3958 560,753.9248 " fill="none" id="CardRequestSpi-to-ApduRequestSpi" style="stroke:#3498DB;stroke-width:2.0;stroke-dasharray:7.0,7.0;"/><polygon fill="#3498DB" points="560,758.9608,564,749.9608,560,753.9608,556,749.9608,560,758.9608" style="stroke:#3498DB;stroke-width:2.0;"/><polygon fill="#000000" points="565,633.2803,567.9389,624.2352,562.0611,624.2352,565,633.2803" style="stroke:#000000;stroke-width:1.0;"/><text fill="#000000" font-family="sans-serif" font-size="13" lengthAdjust="spacing" textLength="40" x="574" y="633.6631">provide</text></g><!--link CardSelectionResponseApi to ApduResponseApi--><g id="link_CardSelectionResponseApi_ApduResponseApi"><path codeLine="160" d="M1429.48,368.7638 C1457.28,389.8008 1483.6,416.1838 1499,447.6348 C1546.24,544.1228 1508.86,671.2398 1478.01,746.4668 " fill="none" id="CardSelectionResponseApi-to-ApduResponseApi" style="stroke:#3498DB;stroke-width:2.0;stroke-dasharray:7.0,7.0;"/><polygon fill="#3498DB" points="1475.99,751.3458,1483.126,744.5577,1477.9009,746.7253,1475.7333,741.5003,1475.99,751.3458" style="stroke:#3498DB;stroke-width:2.0;"/><polygon fill="#000000" points="1526.6372,523.2395,1528.3995,513.8936,1522.5695,514.6427,1526.6372,523.2395" style="stroke:#000000;stroke-width:1.0;"/><text fill="#000000" font-family="sans-serif" font-size="13" lengthAdjust="spacing" textLength="40" x="1535" y="523.6631">provide</text></g><!--link CardSelectionResponseApi to CardResponseApi--><g id="link_CardSelectionResponseApi_CardResponseApi"><path codeLine="161" d="M1320,368.6618 C1320,398.3348 1320,433.8738 1320,462.7428 " fill="none" id="CardSelectionResponseApi-to-CardResponseApi" style="stroke:#3498DB;stroke-width:2.0;stroke-dasharray:7.0,7.0;"/><polygon fill="#3498DB" points="1320,468.0518,1324,459.0518,1320,463.0518,1316,459.0518,1320,468.0518" style="stroke:#3498DB;stroke-width:2.0;"/><polygon fill="#000000" points="1325,413.2803,1327.9389,404.2352,1322.0611,404.2352,1325,413.2803" style="stroke:#000000;stroke-width:1.0;"/><text fill="#000000" font-family="sans-serif" font-size="13" lengthAdjust="spacing" textLength="40" x="1334" y="413.6631">provide</text></g><!--link CardResponseApi to ApduResponseApi--><g id="link_CardResponseApi_ApduResponseApi"><path codeLine="163" d="M1341.57,568.1698 C1363.18,617.3048 1396.54,693.1528 1420.15,746.8128 " fill="none" id="CardResponseApi-to-ApduResponseApi" style="stroke:#3498DB;stroke-width:2.0;stroke-dasharray:7.0,7.0;"/><polygon fill="#3498DB" points="1422.26,751.6088,1422.3054,741.76,1420.2504,747.0304,1414.98,744.9754,1422.26,751.6088" style="stroke:#3498DB;stroke-width:2.0;"/><polygon fill="#000000" points="1375.0132,632.8571,1374.0615,623.3942,1368.6811,625.7609,1375.0132,632.8571" style="stroke:#000000;stroke-width:1.0;"/><text fill="#000000" font-family="sans-serif" font-size="13" lengthAdjust="spacing" textLength="40" x="1382" y="633.6631">provide</text></g><!--link CardResponseApi to AbstractApduException--><g id="link_CardResponseApi_AbstractApduException"><path codeLine="165" d="M1285.62,568.1698 C1268.28,592.9098 1246.19,624.4208 1223.73,656.4628 " fill="none" id="CardResponseApi-to-AbstractApduException" style="stroke:#3498DB;stroke-width:2.0;"/><polygon fill="#3498DB" points="1216.1,667.3408,1222.8198,664.7247,1222.9895,657.5156,1216.2697,660.1317,1216.1,667.3408" style="stroke:#3498DB;stroke-width:2.0;"/><text fill="#000000" font-family="sans-serif" font-size="13" lengthAdjust="spacing" textLength="22" x="1256.9548" y="590.7812">0..1</text></g><!--reverse link CardRequestSpi to ProxyReaderApi--><g id="link_CardRequestSpi_ProxyReaderApi"><path codeLine="167" d="M715.759,518.1348 C737.393,518.1348 759.538,518.1348 780.945,518.1348 " fill="none" id="CardRequestSpi-backto-ProxyReaderApi" style="stroke:#27AE60;stroke-width:2.0;stroke-dasharray:7.0,7.0;"/><polygon fill="#27AE60" points="710.567,518.1348,719.567,522.1348,715.567,518.1348,719.567,514.1348,710.567,518.1348" style="stroke:#27AE60;stroke-width:2.0;"/><polygon fill="#000000" points="727.75,505.7803,736.7951,508.7192,736.7951,502.8413,727.75,505.7803" style="stroke:#000000;stroke-width:1.0;"/><text fill="#000000" font-family="sans-serif" font-size="13" lengthAdjust="spacing" textLength="21" x="741.75" y="511.1631">use</text></g><!--reverse link ChannelControl to ProxyReaderApi--><g id="link_ChannelControl_ProxyReaderApi"><path codeLine="168" d="M925,355.6478 C925,382.7698 925,417.3818 925,447.6008 " fill="none" id="ChannelControl-backto-ProxyReaderApi" style="stroke:#27AE60;stroke-width:2.0;stroke-dasharray:7.0,7.0;"/><polygon fill="#27AE60" points="925,350.3268,921,359.3268,925,355.3268,929,359.3268,925,350.3268" style="stroke:#27AE60;stroke-width:2.0;"/><polygon fill="#000000" points="930,403.2803,927.0611,412.3254,932.9389,412.3254,930,403.2803" style="stroke:#000000;stroke-width:1.0;"/><text fill="#000000" font-family="sans-serif" font-size="13" lengthAdjust="spacing" textLength="21" x="939" y="413.6631">use</text></g><!--link ProxyReaderApi to CardResponseApi--><g id="link_ProxyReaderApi_CardResponseApi"><path codeLine="170" d="M1069,518.1348 C1096.3,518.1348 1125.07,518.1348 1153,518.1348 " fill="none" id="ProxyReaderApi-to-CardResponseApi" style="stroke:#3498DB;stroke-width:2.0;stroke-dasharray:7.0,7.0;"/><polygon fill="#3498DB" points="1158.21,518.1348,1149.21,514.1348,1153.21,518.1348,1149.21,522.1348,1158.21,518.1348" style="stroke:#3498DB;stroke-width:2.0;"/><polygon fill="#000000" points="1096.25,505.7803,1087.2049,502.8413,1087.2049,508.7192,1096.25,505.7803" style="stroke:#000000;stroke-width:1.0;"/><text fill="#000000" font-family="sans-serif" font-size="13" lengthAdjust="spacing" textLength="40" x="1100.25" y="511.1631">provide</text></g><!--link ProxyReaderApi to AbstractApduException--><g id="link_ProxyReaderApi_AbstractApduException"><path codeLine="171" d="M970.749,588.8368 C985.512,611.3278 1002.47,637.1718 1019.48,663.0808 " fill="none" id="ProxyReaderApi-to-AbstractApduException" style="stroke:#3498DB;stroke-width:2.0;stroke-dasharray:7.0,7.0;"/><polygon fill="#3498DB" points="1022.43,667.5778,1020.8428,657.8576,1019.6895,663.3957,1014.1515,662.2424,1022.43,667.5778" style="stroke:#3498DB;stroke-width:2.0;"/><polygon fill="#000000" points="1004.7436,632.4603,1002.2373,623.2859,997.3234,626.5112,1004.7436,632.4603" style="stroke:#000000;stroke-width:1.0;"/><text fill="#000000" font-family="sans-serif" font-size="13" lengthAdjust="spacing" textLength="31" x="1011" y="633.6631">throw</text></g><!--SRC=[pLXRSzeu57xthz0c3ysba0H8QJ8fCyQMkqnJO6EoEvcsqt5i0PuOoPNa9cmc_tqbszYoiO6zTBfvYe_EET_HTouIuZuFa0RIFyC9bY4Z674mGNJXOoSGCke1VJm0hUPfynWSj4vRxSRfcyRfsQ66i0Tux45x1Twz0vDVuKSe_X6V1ea25546VCOYn827m2MOSnwoovEJELy4BWa8TOc7MDCbYvCfFU7EVO2SgE6XXfjOLuZ4lyoVuKOOEFn4-yL3KnyZO7nzVmFlpe3rrhgmBahY5h1QLjlgbCHj0CzX5vQrEy3icdtJB8dFWQ4RbjagYT-0lccqZQuYlXuCFu1sv-AjsLUajpO4hQuEtvnAhXeDOFDb87ZXSuS3Z-1N73mI-W0UVJu763s2xuWods10fa3i5VDe4GWpZJtuE7Ieim2C8ue8NuP8xnFg8Mf8Hi6-Vc4QfbMfE2WezZjw5vvNAXf5ZwPvrczLAiA28knVj0Lql3yuD6MyYfKHE8mb-fEvxpvWn1XGtUgKaaTrINYwGq507jUyEEx3Z988Uoco1Irem6gmLCNiwCQfALpU86-BlwihYhnUJxWreGcD3MupJTZjY3hGvhuez9KmfqcWZYCQYaRP1Xp6QZ5s1nfMToDshlmMTZgwkOBFv8K8xeDeExvKYlVJjywj_aRqbMfQwobsAYqWlwS8uQtGCwaLOrzONMXjnCvqqvvAmLVYClfo5_1bZAsBEeBRi6FLbj66vohqieYSp4HZD9p0uIIPYi0U3xHGO3ip1FR4nnvm662X3vxZ8NpiOs4_TLonUXLFoCkOJpc4RHGWbukH09yumd8ssA4VszUkfbvZpmMb6_HD36KkLMQ8Los1WyFSrbuuDD4I1e8MXi11oOY513EaYtMtPY7nzvBiqvMiYZrUmISNXLApr_kCnz9r9edtLXIf6ogj7DYS-dW65c9q27OFTrLy3IPpCNRaGID2ZnWgn9ddey31iw8Z1WhyxHRQax957UFA7jGSsuXV3OJn3D6Up8eTkQu8SHe5cHEREpnYVuXYP8NyIAJrb9Oo-L8LNtLOrpxZLtheHVbo798YAWPmJuWufx6eVXAEy2rcUUnPoBLn587KEEwN77twia8kbcGzMpKafMaNkWCy9NaqBzgg6e-EflBAStGKKoDATan9Y2Zt4OjhiI1PTUmp4tY- -m9ownJfTtXZ3qP32P1lLZXuMjuWHumJFTkiE2ULFEQjnAc3sS8lPZFRqMTUog2RVxvMjUOEnYWm2EQK1C0jV1vg2VHtudk0Ya9p64eD94KYTeGZCGMBFfAmFq0u_ZeQms7yPLoFRFXLjoRmHfZ9hh37ew4DjVgMo7UQafddQ4mU4HrXq-7EAbN7IQ7aHZBjiJCz30FVTLIdcT6gDESE- -XmTuwoGboZE-kRt4KXTs9SsOZwJk3_ASU5d5Wb5zauhjYRqbJPcj9LYOojnUspQp8JcmlI58n2X7U9h8IK5d2Hm3IowZPJn38BeoYR918u9h_Gso-QTkpSCr6pBWVLyrrFboLCSSnNhXIxOxzQPxqVYaUHygqsHKwlQcIGXRWuSQHgLfqh_uzOr9MrGspd4YzLMrK8QRqbIKs6Lv-I1uI5mYB2QUlbF21v1_5sokhn3kuEjd2vEvMWAfa_DOIAwqV6jBJ_ptZUwkn7i_pp0jZ4yIr6Jw4uGf2NJxD_Hl1cJp-QtP-4NacjEFnrneZhnmbccbR_0wNPRFRAT_pzz0tb4d3f6_GsslUAD_FSEAJak_nfjisyxfh-hptbREydxp-NG10al6Xra2idMwBGIZhIh7I9hZMhZ2ztK8Xvy_RB3iebjY7olu-iLNVWKICA6s3ljDayswiBGDDAT-vcWAQyacarIMMZA9GcnMjmEQzb6-hFvdn7QigsafZAFQ-tH_BGSAtVZMxJTuOofOrFSz_p4FxIg7OgBTJVDfc-fAfHMzZQArPqNgkOX6XFxgwJz-7L6mXBs4XURv_5wAZzfPGzxgWwjGMPlu5fvH-yMvJAr2bAfTjjTNeK_PtlIsisMy_ADOlDyrzH_mi0]--></g></svg>